<svg xmlns="http://www.w3.org/2000/svg" viewBox="0 0 240 240">
  <defs>
    <linearGradient id="g" x1="0" x2="1">
      <stop offset="0" stop-color="#22d3ee" stop-opacity="0.85"/>
      <stop offset="1" stop-color="#f59e0b" stop-opacity="0.85"/>
    </linearGradient>
    <radialGradient id="r" cx="30%" cy="15%" r="80%">
      <stop offset="0" stop-color="#ffffff" stop-opacity="0.16"/>
      <stop offset="1" stop-color="#ffffff" stop-opacity="0"/>
    </radialGradient>
  </defs>
  <rect x="14" y="14" width="212" height="212" rx="30" fill="rgba(255,255,255,0.04)" stroke="rgba(255,255,255,0.18)" stroke-width="2"/>
  <rect x="14" y="14" width="212" height="212" rx="30" fill="url(#r)"/>
  <path fill="url(#g)" d="M96 74c12 0 20 8 20 20v14h20V94c0-12 8-20 20-20 13 0 23 11 20 24l-14 66c-4 18-20 32-39 32H118c-19 0-35-14-39-32L65 98c-3-13 7-24 20-24h11Z"/>
  <path fill="rgba(0,0,0,0.18)" d="M96 84c7 0 12 5 12 12v22h44V96c0-7 5-12 12-12 8 0 14 7 12 15l-12 58c-3 14-16 25-31 25h-12c-15 0-28-11-31-25L78 99c-2-8 4-15 12-15h6Z"/>
</svg>
